<?xml version="1.0" standalone="no"?>
<!DOCTYPE svg PUBLIC "-//W3C//DTD SVG 20010904//EN"
 "http://www.w3.org/TR/2001/REC-SVG-20010904/DTD/svg10.dtd">
<svg version="1.0" xmlns="http://www.w3.org/2000/svg"
 width="260.000000pt" height="260.000000pt" viewBox="0 0 260.000000 260.000000"
 preserveAspectRatio="xMidYMid meet">
<metadata>
Created by potrace 1.14, written by Peter Selinger 2001-2017
</metadata>
<g transform="translate(0.000000,260.000000) scale(0.100000,-0.100000)"
fill="#000000" stroke="none">
<path d="M1169 2596 c-2 -2 -24 -6 -49 -10 -344 -45 -665 -238 -869 -521 -126
-174 -208 -373 -238 -580 -9 -63 -10 -293 -1 -360 25 -189 101 -386 215 -558
52 -79 221 -257 280 -297 21 -14 46 -32 56 -41 9 -9 30 -22 45 -30 15 -8 29
-16 32 -19 13 -15 184 -91 251 -113 147 -48 233 -61 409 -61 93 0 189 5 220
12 30 7 66 14 79 17 85 16 236 78 356 145 109 61 292 221 360 315 16 22 32 42
35 45 20 15 120 197 149 270 34 85 81 256 81 292 0 10 4 17 8 14 5 -3 9 1 9 9
0 8 -4 12 -9 9 -4 -3 -8 0 -8 5 0 6 4 11 9 11 13 0 10 282 -3 299 -8 10 -8 13
0 8 6 -3 11 0 11 8 0 8 -4 12 -7 10 -4 -3 -11 17 -15 43 -11 78 -42 199 -55
217 -4 6 -13 28 -20 49 -61 190 -275 457 -470 588 -144 97 -345 182 -480 203
-25 4 -54 9 -65 12 -27 6 -310 14 -316 9z"/>
</g>
</svg>
